<svg xmlns="http://www.w3.org/2000/svg" width="288" height="384" viewBox="-6 -6 36 44" shape-rendering="crispEdges">
  <g transform="translate(2.28 -2.52) rotate(-8 16.54 10.27)">
    <rect x="13" y="0" width="9" height="1" fill="#000000"/>
    <rect x="10" y="1" width="11" height="1" fill="#2563eb"/>
    <rect x="21" y="1" width="1" height="1" fill="#000000"/>
    <rect x="8" y="2" width="13" height="1" fill="#2563eb"/>
    <rect x="21" y="2" width="1" height="1" fill="#000000"/>
    <rect x="8" y="3" width="13" height="1" fill="#2563eb"/>
    <rect x="21" y="3" width="1" height="1" fill="#000000"/>
    <rect x="11" y="4" width="10" height="1" fill="#2563eb"/>
    <rect x="21" y="4" width="1" height="1" fill="#000000"/>
    <rect x="13" y="5" width="8" height="1" fill="#2563eb"/>
    <rect x="21" y="5" width="1" height="1" fill="#000000"/>
    <rect x="13" y="6" width="8" height="1" fill="#2563eb"/>
    <rect x="21" y="6" width="1" height="1" fill="#000000"/>
    <rect x="13" y="7" width="8" height="1" fill="#2563eb"/>
    <rect x="21" y="7" width="1" height="1" fill="#000000"/>
    <rect x="12" y="8" width="9" height="1" fill="#2563eb"/>
    <rect x="21" y="8" width="1" height="1" fill="#000000"/>
    <rect x="10" y="9" width="13" height="1" fill="#000000"/>
    <rect x="10" y="10" width="12" height="1" fill="#2563eb"/>
    <rect x="22" y="10" width="1" height="1" fill="#000000"/>
    <rect x="12" y="11" width="11" height="1" fill="#000000"/>
    <rect x="13" y="12" width="8" height="1" fill="#2563eb"/>
    <rect x="21" y="12" width="1" height="1" fill="#000000"/>
    <rect x="13" y="13" width="8" height="1" fill="#2563eb"/>
    <rect x="21" y="13" width="1" height="1" fill="#000000"/>
    <rect x="9" y="14" width="12" height="1" fill="#2563eb"/>
    <rect x="21" y="14" width="1" height="1" fill="#000000"/>
    <rect x="9" y="15" width="12" height="1" fill="#2563eb"/>
    <rect x="21" y="15" width="1" height="1" fill="#000000"/>
    <rect x="9" y="16" width="4" height="1" fill="#2563eb"/>
    <rect x="15" y="16" width="6" height="1" fill="#2563eb"/>
    <rect x="21" y="16" width="1" height="1" fill="#000000"/>
    <rect x="9" y="17" width="4" height="1" fill="#2563eb"/>
    <rect x="15" y="17" width="6" height="1" fill="#2563eb"/>
    <rect x="21" y="17" width="1" height="1" fill="#000000"/>
    <rect x="10" y="18" width="2" height="1" fill="#2563eb"/>
    <rect x="16" y="18" width="5" height="1" fill="#2563eb"/>
    <rect x="21" y="18" width="1" height="1" fill="#000000"/>
    <rect x="16" y="19" width="5" height="1" fill="#2563eb"/>
    <rect x="21" y="19" width="1" height="1" fill="#000000"/>
    <rect x="15" y="20" width="6" height="1" fill="#000000"/>
    <rect x="15" y="21" width="4" height="1" fill="#2563eb"/>
    <rect x="15" y="22" width="2" height="1" fill="#000000"/>
  </g>
  <g transform="translate(0.30 3.39) rotate(0 11.82 25.53)">
    <rect x="13" y="16" width="2" height="1" fill="#2563eb"/>
    <rect x="13" y="17" width="2" height="1" fill="#2563eb"/>
    <rect x="5" y="18" width="5" height="1" fill="#2563eb"/>
    <rect x="12" y="18" width="4" height="1" fill="#2563eb"/>
    <rect x="5" y="19" width="11" height="1" fill="#2563eb"/>
    <rect x="1" y="20" width="1" height="1" fill="#000000"/>
    <rect x="5" y="20" width="10" height="1" fill="#000000"/>
    <rect x="21" y="20" width="2" height="1" fill="#000000"/>
    <rect x="1" y="21" width="1" height="1" fill="#000000"/>
    <rect x="2" y="21" width="1" height="1" fill="#2563eb"/>
    <rect x="5" y="21" width="10" height="1" fill="#2563eb"/>
    <rect x="19" y="21" width="3" height="1" fill="#2563eb"/>
    <rect x="22" y="21" width="1" height="1" fill="#000000"/>
    <rect x="1" y="22" width="14" height="1" fill="#000000"/>
    <rect x="17" y="22" width="6" height="1" fill="#000000"/>
    <rect x="2" y="23" width="1" height="1" fill="#000000"/>
    <rect x="3" y="23" width="18" height="1" fill="#2563eb"/>
    <rect x="21" y="23" width="1" height="1" fill="#000000"/>
    <rect x="2" y="24" width="1" height="1" fill="#000000"/>
    <rect x="3" y="24" width="18" height="1" fill="#2563eb"/>
    <rect x="21" y="24" width="1" height="1" fill="#000000"/>
    <rect x="2" y="25" width="1" height="1" fill="#000000"/>
    <rect x="3" y="25" width="18" height="1" fill="#2563eb"/>
    <rect x="21" y="25" width="1" height="1" fill="#000000"/>
    <rect x="2" y="26" width="1" height="1" fill="#000000"/>
    <rect x="3" y="26" width="18" height="1" fill="#2563eb"/>
    <rect x="21" y="26" width="1" height="1" fill="#000000"/>
    <rect x="2" y="27" width="1" height="1" fill="#000000"/>
    <rect x="3" y="27" width="18" height="1" fill="#2563eb"/>
    <rect x="21" y="27" width="1" height="1" fill="#000000"/>
    <rect x="2" y="28" width="1" height="1" fill="#000000"/>
    <rect x="3" y="28" width="18" height="1" fill="#2563eb"/>
    <rect x="21" y="28" width="1" height="1" fill="#000000"/>
    <rect x="2" y="29" width="1" height="1" fill="#000000"/>
    <rect x="3" y="29" width="18" height="1" fill="#2563eb"/>
    <rect x="21" y="29" width="1" height="1" fill="#000000"/>
    <rect x="2" y="30" width="1" height="1" fill="#000000"/>
    <rect x="3" y="30" width="18" height="1" fill="#2563eb"/>
    <rect x="21" y="30" width="1" height="1" fill="#000000"/>
    <rect x="2" y="31" width="20" height="1" fill="#000000"/>
  </g>
  <g transform="translate(-1.91 -2.81) rotate(8 6.33 9.55)">
    <rect x="2" y="0" width="11" height="1" fill="#000000"/>
    <rect x="2" y="1" width="1" height="1" fill="#000000"/>
    <rect x="3" y="1" width="7" height="1" fill="#2563eb"/>
    <rect x="2" y="2" width="1" height="1" fill="#000000"/>
    <rect x="3" y="2" width="5" height="1" fill="#2563eb"/>
    <rect x="2" y="3" width="1" height="1" fill="#000000"/>
    <rect x="3" y="3" width="5" height="1" fill="#2563eb"/>
    <rect x="2" y="4" width="1" height="1" fill="#000000"/>
    <rect x="3" y="4" width="8" height="1" fill="#2563eb"/>
    <rect x="2" y="5" width="1" height="1" fill="#000000"/>
    <rect x="3" y="5" width="10" height="1" fill="#2563eb"/>
    <rect x="2" y="6" width="1" height="1" fill="#000000"/>
    <rect x="3" y="6" width="10" height="1" fill="#2563eb"/>
    <rect x="2" y="7" width="1" height="1" fill="#000000"/>
    <rect x="3" y="7" width="10" height="1" fill="#2563eb"/>
    <rect x="2" y="8" width="1" height="1" fill="#000000"/>
    <rect x="3" y="8" width="9" height="1" fill="#2563eb"/>
    <rect x="1" y="9" width="9" height="1" fill="#000000"/>
    <rect x="1" y="10" width="1" height="1" fill="#000000"/>
    <rect x="2" y="10" width="8" height="1" fill="#2563eb"/>
    <rect x="1" y="11" width="11" height="1" fill="#000000"/>
    <rect x="2" y="12" width="1" height="1" fill="#000000"/>
    <rect x="3" y="12" width="10" height="1" fill="#2563eb"/>
    <rect x="2" y="13" width="1" height="1" fill="#000000"/>
    <rect x="3" y="13" width="10" height="1" fill="#2563eb"/>
    <rect x="2" y="14" width="1" height="1" fill="#000000"/>
    <rect x="3" y="14" width="6" height="1" fill="#2563eb"/>
    <rect x="2" y="15" width="1" height="1" fill="#000000"/>
    <rect x="3" y="15" width="6" height="1" fill="#2563eb"/>
    <rect x="2" y="16" width="1" height="1" fill="#000000"/>
    <rect x="3" y="16" width="6" height="1" fill="#2563eb"/>
    <rect x="2" y="17" width="1" height="1" fill="#000000"/>
    <rect x="3" y="17" width="6" height="1" fill="#2563eb"/>
    <rect x="2" y="18" width="1" height="1" fill="#000000"/>
    <rect x="3" y="18" width="2" height="1" fill="#2563eb"/>
    <rect x="2" y="19" width="1" height="1" fill="#000000"/>
    <rect x="3" y="19" width="2" height="1" fill="#2563eb"/>
    <rect x="2" y="20" width="3" height="1" fill="#000000"/>
    <rect x="3" y="21" width="2" height="1" fill="#000000"/>
  </g>
</svg>
