<svg xmlns="http://www.w3.org/2000/svg" width="24" height="24" viewBox="0 0 24 24" shape-rendering="crispEdges">
<rect x="0" y="0" width="24" height="24" fill="#5aa0ff"/>
<rect x="0" y="0" width="7" height="2" fill="#0a1836"/>
<rect x="17" y="0" width="7" height="2" fill="#0a1836"/>
<rect x="0" y="2" width="5" height="2" fill="#0a1836"/>
<rect x="19" y="2" width="5" height="2" fill="#0a1836"/>
<rect x="0" y="4" width="4" height="2" fill="#0a1836"/>
<rect x="20" y="4" width="4" height="2" fill="#0a1836"/>
<rect x="0" y="6" width="3" height="2" fill="#0a1836"/>
<rect x="21" y="6" width="3" height="2" fill="#0a1836"/>
<rect x="0" y="8" width="2" height="2" fill="#0a1836"/>
<rect x="22" y="8" width="2" height="2" fill="#0a1836"/>
<rect x="7" y="0" width="2" height="2" fill="#2f5fb4"/>
<rect x="15" y="0" width="2" height="2" fill="#2f5fb4"/>
<rect x="5" y="2" width="2" height="2" fill="#2f5fb4"/>
<rect x="17" y="2" width="2" height="2" fill="#2f5fb4"/>
<rect x="4" y="4" width="2" height="2" fill="#2f5fb4"/>
<rect x="18" y="4" width="2" height="2" fill="#2f5fb4"/>
<rect x="3" y="6" width="2" height="2" fill="#2f5fb4"/>
<rect x="19" y="6" width="2" height="2" fill="#2f5fb4"/>
<rect x="2" y="8" width="2" height="2" fill="#2f5fb4"/>
<rect x="20" y="8" width="2" height="2" fill="#2f5fb4"/>
<rect x="0" y="10" width="3" height="2" fill="#2f5fb4"/>
<rect x="21" y="10" width="3" height="2" fill="#2f5fb4"/>
<rect x="0" y="12" width="2" height="2" fill="#2f5fb4"/>
<rect x="22" y="12" width="2" height="2" fill="#2f5fb4"/>
<rect x="11" y="8" width="2" height="2" fill="#c8ecff"/>
<rect x="10" y="10" width="4" height="2" fill="#c8ecff"/>
<rect x="9" y="12" width="6" height="2" fill="#c8ecff"/>
<rect x="8" y="14" width="8" height="4" fill="#c8ecff"/>
<rect x="9" y="18" width="6" height="2" fill="#c8ecff"/>
</svg>
