<svg xmlns="http://www.w3.org/2000/svg" width="24" height="24" viewBox="0 0 24 24" shape-rendering="crispEdges">
<rect x="0" y="0" width="24" height="24" fill="#8c6038"/>
<rect x="20" y="1" width="4" height="1" fill="#b37b48"/>
<rect x="16" y="2" width="8" height="1" fill="#b37b48"/>
<rect x="12" y="3" width="8" height="1" fill="#b37b48"/>
<rect x="8" y="4" width="8" height="1" fill="#b37b48"/>
<rect x="4" y="5" width="8" height="1" fill="#b37b48"/>
<rect x="0" y="6" width="8" height="1" fill="#b37b48"/>
<rect x="0" y="7" width="4" height="1" fill="#b37b48"/>
<rect x="8" y="10" width="6" height="1" fill="#624327"/>
<rect x="7" y="11" width="8" height="1" fill="#624327"/>
<rect x="7" y="12" width="2" height="2" fill="#624327"/>
<rect x="9" y="12" width="4" height="2" fill="#46301c"/>
<rect x="13" y="12" width="2" height="2" fill="#624327"/>
<rect x="7" y="14" width="8" height="1" fill="#624327"/>
<rect x="8" y="15" width="6" height="1" fill="#624327"/>
<rect x="0" y="19" width="16" height="1" fill="#624327"/>
<rect x="0" y="20" width="24" height="1" fill="#624327"/>
<rect x="16" y="21" width="8" height="1" fill="#624327"/>
</svg>
