<svg xmlns="http://www.w3.org/2000/svg" width="24" height="24" viewBox="0 0 24 24" shape-rendering="crispEdges">
<rect x="0" y="0" width="24" height="24" fill="#9e42b0"/>
<rect x="4" y="0" width="2" height="2" fill="#6b2678"/>
<rect x="16" y="0" width="2" height="2" fill="#6b2678"/>
<rect x="2" y="2" width="6" height="2" fill="#c77ad4"/>
<rect x="14" y="2" width="6" height="2" fill="#c77ad4"/>
<rect x="0" y="4" width="2" height="2" fill="#6b2678"/>
<rect x="2" y="4" width="2" height="2" fill="#c77ad4"/>
<rect x="4" y="4" width="2" height="2" fill="#3d1145"/>
<rect x="6" y="4" width="4" height="2" fill="#6b2678"/>
<rect x="12" y="4" width="2" height="2" fill="#6b2678"/>
<rect x="14" y="4" width="2" height="2" fill="#c77ad4"/>
<rect x="16" y="4" width="2" height="2" fill="#3d1145"/>
<rect x="18" y="4" width="4" height="2" fill="#6b2678"/>
<rect x="2" y="6" width="6" height="2" fill="#6b2678"/>
<rect x="14" y="6" width="6" height="2" fill="#6b2678"/>
<rect x="4" y="8" width="2" height="2" fill="#6b2678"/>
<rect x="16" y="8" width="2" height="2" fill="#6b2678"/>
<rect x="6" y="12" width="2" height="2" fill="#6b2678"/>
<rect x="18" y="12" width="2" height="2" fill="#6b2678"/>
<rect x="4" y="14" width="6" height="2" fill="#c77ad4"/>
<rect x="16" y="14" width="6" height="2" fill="#c77ad4"/>
<rect x="2" y="16" width="2" height="2" fill="#6b2678"/>
<rect x="4" y="16" width="2" height="2" fill="#c77ad4"/>
<rect x="6" y="16" width="2" height="2" fill="#3d1145"/>
<rect x="8" y="16" width="4" height="2" fill="#6b2678"/>
<rect x="14" y="16" width="2" height="2" fill="#6b2678"/>
<rect x="16" y="16" width="2" height="2" fill="#c77ad4"/>
<rect x="18" y="16" width="2" height="2" fill="#3d1145"/>
<rect x="20" y="16" width="4" height="2" fill="#6b2678"/>
<rect x="4" y="18" width="6" height="2" fill="#6b2678"/>
<rect x="16" y="18" width="6" height="2" fill="#6b2678"/>
<rect x="6" y="20" width="2" height="2" fill="#6b2678"/>
<rect x="18" y="20" width="2" height="2" fill="#6b2678"/>
</svg>
